<svg width="512" height="512" version="1.1" xmlns="http://www.w3.org/2000/svg" desc="Created with imagetracer.js version 1.2.6" ><path fill="rgb(205,163,145)" stroke="rgb(205,163,145)" stroke-width="1" opacity="0.9803921568627451" d="M 23.5 118 L 22.5 120 L 23.5 118 Z " /><path fill="rgb(205,163,145)" stroke="rgb(205,163,145)" stroke-width="1" opacity="0.9803921568627451" d="M 498.5 122 L 497.5 124 L 498.5 122 Z " /><path fill="rgb(205,163,145)" stroke="rgb(205,163,145)" stroke-width="1" opacity="0.9803921568627451" d="M 239.5 212 L 242 212.5 L 239.5 213 L 239.5 212 Z " /><path fill="rgb(205,163,145)" stroke="rgb(205,163,145)" stroke-width="1" opacity="0.9803921568627451" d="M 244.5 213 L 247 213.5 L 244.5 214 L 244.5 213 Z " /><path fill="rgb(205,163,145)" stroke="rgb(205,163,145)" stroke-width="1" opacity="0.9803921568627451" d="M 250.5 214 L 255 214.5 L 250.5 215 L 250.5 214 Z " /><path fill="rgb(205,163,145)" stroke="rgb(205,163,145)" stroke-width="1" opacity="0.9803921568627451" d="M 260.5 214 L 263 214.5 L 260.5 215 L 260.5 214 Z " /><path fill="rgb(210,168,150)" stroke="rgb(210,168,150)" stroke-width="1" opacity="1" d="M 497.5 122 L 496.5 124 L 497.5 122 Z " /><path fill="rgb(210,168,150)" stroke="rgb(210,168,150)" stroke-width="1" opacity="1" d="M 255.5 214 L 260 214.5 L 255.5 215 L 255.5 214 Z " /><path fill="rgb(0,0,0)" stroke="rgb(0,0,0)" stroke-width="1" opacity="0" d="M 0 0 L 511.5 0 L 512 0.5 L 512 133.5 L 511 133.5 L 511 131.5 L 505.5 125 L 275.5 29 L 259.5 23 L 252.5 23 L 9.5 123 L 3 128.5 L 0.5 134 L 0 0 Z " /><path fill="rgb(0,0,0)" stroke="rgb(0,0,0)" stroke-width="1" opacity="0" d="M 0.5 378 L 6.5 387 L 241.5 485 L 252.5 489 L 259.5 489 L 490.5 394 L 505.5 387 L 509 383.5 L 511.5 378 L 512 512 L 0.5 512 L 0 511.5 L 0.5 378 Z " /><path fill="rgb(211,169,151)" stroke="rgb(211,169,151)" stroke-width="1" opacity="1" d="M 252.5 24 L 262.5 25 L 497 122.5 L 421.5 155 L 396.5 165 L 392.5 165 L 172 59 Q 170.8 56 174.5 57 L 252.5 24 Z " /><path fill="rgb(211,169,151)" stroke="rgb(211,169,151)" stroke-width="1" opacity="1" d="M 104.5 85 L 108.5 85 L 129.5 95 L 328 191.5 L 304.5 201 L 268.5 213 Q 260.6 215.6 248.5 214 L 223.5 208 L 164.5 186 Q 91.5 155 23 119.5 L 104.5 85 Z " /><path fill="rgb(81,92,108)" stroke="rgb(81,92,108)" stroke-width="1" opacity="0.996078431372549" d="M 168.5 58 L 406 172.5 L 406 283.5 L 401.5 289 L 362.5 306 L 351.5 309 L 346 305.5 L 344 301.5 L 344 198 L 339.5 197 L 319.5 186 L 112.5 86 L 108 85 Q 106.9 82.3 109.5 83 L 168.5 58 Z " /><path fill="rgb(81,92,108)" stroke="rgb(81,92,108)" stroke-width="1" opacity="0.996078431372549" d="M 349.5 358 Q 357.5 356.5 360 360.5 Q 362.7 362.8 362 368.5 L 357.5 374 L 313.5 392 L 307.5 393 L 301 388.5 L 300 381.5 L 304.5 376 L 349.5 358 Z " /><path fill="rgb(81,92,108)" stroke="rgb(81,92,108)" stroke-width="1" opacity="0.996078431372549" d="M 394.5 384 Q 403.1 382.9 405 388.5 L 406 395.5 L 402.5 400 L 311.5 437 L 306.5 437 L 301 432.5 L 300 425.5 L 303.5 421 L 394.5 384 Z " /><path fill="rgb(167,125,107)" stroke="rgb(167,125,107)" stroke-width="1" opacity="0.996078431372549" d="M 3.5 129 L 252.5 232 L 256 234.5 L 256 487.5 Q 255.9 488.6 250.5 488 L 239 483 L 240 479.5 L 242 435.5 L 243 434.5 L 243 417.5 L 244 416.5 L 245 362.5 L 246 361.5 L 246 324.5 L 245 323.5 L 244 288.5 L 240 265.5 Q 235.3 251.7 224.5 244 L 198.5 226 L 148.5 200 L 56.5 161 L 11.5 144 L 0 141 L 0 135.5 L 3.5 129 Z " /><path fill="rgb(167,125,107)" stroke="rgb(167,125,107)" stroke-width="1" opacity="0.996078431372549" d="M 351.5 357 L 355 357.5 L 351.5 358 L 351.5 357 Z " /><path fill="rgb(188,145,126)" stroke="rgb(188,145,126)" stroke-width="1" opacity="0.5647058823529412" d="M 252.5 23 L 260 23.5 L 252.5 24 L 252.5 23 Z " /><path fill="rgb(188,145,126)" stroke="rgb(188,145,126)" stroke-width="1" opacity="0.5647058823529412" d="M 241.5 27 L 243 27.5 L 239.5 29 L 239.5 28 L 241.5 27 Z " /><path fill="rgb(188,145,126)" stroke="rgb(188,145,126)" stroke-width="1" opacity="0.5647058823529412" d="M 236.5 29 L 238 29.5 L 234.5 31 L 234.5 30 L 236.5 29 Z " /><path fill="rgb(188,145,126)" stroke="rgb(188,145,126)" stroke-width="1" opacity="0.5647058823529412" d="M 274.5 29 L 278 30.5 L 276.5 31 L 274.5 29 Z " /><path fill="rgb(188,145,126)" stroke="rgb(188,145,126)" stroke-width="1" opacity="0.5647058823529412" d="M 229.5 32 L 231 32.5 L 227.5 34 L 227.5 33 L 229.5 32 Z " /><path fill="rgb(188,145,126)" stroke="rgb(188,145,126)" stroke-width="1" opacity="0.5647058823529412" d="M 224.5 34 L 226 34.5 L 222.5 36 L 222.5 35 L 224.5 34 Z " /><path fill="rgb(188,145,126)" stroke="rgb(188,145,126)" stroke-width="1" opacity="0.5647058823529412" d="M 286.5 34 L 290 35.5 L 288.5 36 L 286.5 34 Z " /><path fill="rgb(188,145,126)" stroke="rgb(188,145,126)" stroke-width="1" opacity="0.5647058823529412" d="M 212.5 39 L 214 39.5 L 210.5 41 L 210.5 40 L 212.5 39 Z " /><path fill="rgb(188,145,126)" stroke="rgb(188,145,126)" stroke-width="1" opacity="0.5647058823529412" d="M 207.5 41 L 209 41.5 L 205.5 43 L 205.5 42 L 207.5 41 Z " /><path fill="rgb(188,145,126)" stroke="rgb(188,145,126)" stroke-width="1" opacity="0.5647058823529412" d="M 303.5 41 L 307 42.5 L 305.5 43 L 303.5 41 Z " /><path fill="rgb(188,145,126)" stroke="rgb(188,145,126)" stroke-width="1" opacity="0.5647058823529412" d="M 200.5 44 L 202 44.5 L 198.5 46 L 198.5 45 L 200.5 44 Z " /><path fill="rgb(188,145,126)" stroke="rgb(188,145,126)" stroke-width="1" opacity="0.5647058823529412" d="M 195.5 46 L 197 46.5 L 193.5 48 L 193.5 47 L 195.5 46 Z " /><path fill="rgb(188,145,126)" stroke="rgb(188,145,126)" stroke-width="1" opacity="0.5647058823529412" d="M 315.5 46 L 319 47.5 L 317.5 48 L 315.5 46 Z " /><path fill="rgb(188,145,126)" stroke="rgb(188,145,126)" stroke-width="1" opacity="0.5647058823529412" d="M 183.5 51 L 185 51.5 L 181.5 53 L 181.5 52 L 183.5 51 Z " /><path fill="rgb(188,145,126)" stroke="rgb(188,145,126)" stroke-width="1" opacity="0.5647058823529412" d="M 178.5 53 L 180 53.5 L 176.5 55 L 176.5 54 L 178.5 53 Z " /><path fill="rgb(188,145,126)" stroke="rgb(188,145,126)" stroke-width="1" opacity="0.5647058823529412" d="M 332.5 53 L 336 54.5 L 334.5 55 L 332.5 53 Z " /><path fill="rgb(188,145,126)" stroke="rgb(188,145,126)" stroke-width="1" opacity="0.5647058823529412" d="M 171.5 56 L 173 56.5 L 169.5 58 L 169.5 57 L 171.5 56 Z " /><path fill="rgb(188,145,126)" stroke="rgb(188,145,126)" stroke-width="1" opacity="0.5647058823529412" d="M 344.5 58 L 348 59.5 L 346.5 60 L 344.5 58 Z " /><path fill="rgb(188,145,126)" stroke="rgb(188,145,126)" stroke-width="1" opacity="0.5647058823529412" d="M 361.5 65 L 365 66.5 L 363.5 67 L 361.5 65 Z " /><path fill="rgb(188,145,126)" stroke="rgb(188,145,126)" stroke-width="1" opacity="0.5647058823529412" d="M 373.5 70 L 377 71.5 L 375.5 72 L 373.5 70 Z " /><path fill="rgb(188,145,126)" stroke="rgb(188,145,126)" stroke-width="1" opacity="0.5647058823529412" d="M 390.5 77 L 394 78.5 L 392.5 79 L 390.5 77 Z " /><path fill="rgb(188,145,126)" stroke="rgb(188,145,126)" stroke-width="1" opacity="0.5647058823529412" d="M 402.5 82 L 406 83.5 L 404.5 84 L 402.5 82 Z " /><path fill="rgb(188,145,126)" stroke="rgb(188,145,126)" stroke-width="1" opacity="0.5647058823529412" d="M 96.5 87 L 98 87.5 L 94.5 89 L 94.5 88 L 96.5 87 Z " /><path fill="rgb(188,145,126)" stroke="rgb(188,145,126)" stroke-width="1" opacity="0.5647058823529412" d="M 419.5 89 L 423 90.5 L 421.5 91 L 419.5 89 Z " /><path fill="rgb(188,145,126)" stroke="rgb(188,145,126)" stroke-width="1" opacity="0.5647058823529412" d="M 84.5 92 L 86 92.5 L 82.5 94 L 82.5 93 L 84.5 92 Z " /><path fill="rgb(188,145,126)" stroke="rgb(188,145,126)" stroke-width="1" opacity="0.5647058823529412" d="M 79.5 94 L 81 94.5 L 77.5 96 L 77.5 95 L 79.5 94 Z " /><path fill="rgb(188,145,126)" stroke="rgb(188,145,126)" stroke-width="1" opacity="0.5647058823529412" d="M 431.5 94 L 435 95.5 L 433.5 96 L 431.5 94 Z " /><path fill="rgb(188,145,126)" stroke="rgb(188,145,126)" stroke-width="1" opacity="0.5647058823529412" d="M 67.5 99 L 69 99.5 L 65.5 101 L 65.5 100 L 67.5 99 Z " /><path fill="rgb(188,145,126)" stroke="rgb(188,145,126)" stroke-width="1" opacity="0.5647058823529412" d="M 448.5 101 L 452 102.5 L 450.5 103 L 448.5 101 Z " /><path fill="rgb(188,145,126)" stroke="rgb(188,145,126)" stroke-width="1" opacity="0.5647058823529412" d="M 55.5 104 L 57 104.5 L 53.5 106 L 53.5 105 L 55.5 104 Z " /><path fill="rgb(188,145,126)" stroke="rgb(188,145,126)" stroke-width="1" opacity="0.5647058823529412" d="M 50.5 106 L 52 106.5 L 48.5 108 L 48.5 107 L 50.5 106 Z " /><path fill="rgb(188,145,126)" stroke="rgb(188,145,126)" stroke-width="1" opacity="0.5647058823529412" d="M 460.5 106 L 464 107.5 L 462.5 108 L 460.5 106 Z " /><path fill="rgb(188,145,126)" stroke="rgb(188,145,126)" stroke-width="1" opacity="0.5647058823529412" d="M 38.5 111 L 40 111.5 L 36.5 113 L 36.5 112 L 38.5 111 Z " /><path fill="rgb(188,145,126)" stroke="rgb(188,145,126)" stroke-width="1" opacity="0.5647058823529412" d="M 477.5 113 L 481 114.5 L 479.5 115 L 477.5 113 Z " /><path fill="rgb(188,145,126)" stroke="rgb(188,145,126)" stroke-width="1" opacity="0.5647058823529412" d="M 26.5 116 L 28 116.5 L 24.5 118 L 24.5 117 L 26.5 116 Z " /><path fill="rgb(188,145,126)" stroke="rgb(188,145,126)" stroke-width="1" opacity="0.5647058823529412" d="M 489.5 118 L 493 119.5 L 491.5 120 L 489.5 118 Z " /><path fill="rgb(188,145,126)" stroke="rgb(188,145,126)" stroke-width="1" opacity="0.5647058823529412" d="M 9.5 123 L 11 123.5 L 8.5 125 L 9.5 123 Z " /><path fill="rgb(188,145,126)" stroke="rgb(188,145,126)" stroke-width="1" opacity="0.5647058823529412" d="M 501.5 123 L 504 124.5 L 502.5 124 L 501.5 123 Z " /><path fill="rgb(188,145,126)" stroke="rgb(188,145,126)" stroke-width="1" opacity="0.5647058823529412" d="M 6.5 125 L 3.5 129 L 6.5 125 Z " /><path fill="rgb(188,145,126)" stroke="rgb(188,145,126)" stroke-width="1" opacity="0.5647058823529412" d="M 505.5 125 L 508.5 129 L 505.5 125 Z " /><path fill="rgb(188,145,126)" stroke="rgb(188,145,126)" stroke-width="1" opacity="0.5647058823529412" d="M 2.5 130 L 2 131.5 L 1.5 133 L 1 131.5 L 2.5 130 Z " /><path fill="rgb(188,145,126)" stroke="rgb(188,145,126)" stroke-width="1" opacity="0.5647058823529412" d="M 509.5 130 L 511 132.5 L 510 132.5 L 509.5 130 Z " /><path fill="rgb(188,145,126)" stroke="rgb(188,145,126)" stroke-width="1" opacity="0.5647058823529412" d="M 0.5 375 L 1 377.5 L 0 377.5 L 0.5 375 Z " /><path fill="rgb(188,145,126)" stroke="rgb(188,145,126)" stroke-width="1" opacity="0.5647058823529412" d="M 1.5 379 L 6.5 386 L 9 387.5 L 7.5 387 L 3 383.5 L 1.5 379 Z " /><path fill="rgb(188,145,126)" stroke="rgb(188,145,126)" stroke-width="1" opacity="0.5647058823529412" d="M 510.5 379 L 511 380.5 L 509 381.5 L 510.5 379 Z " /><path fill="rgb(188,145,126)" stroke="rgb(188,145,126)" stroke-width="1" opacity="0.5647058823529412" d="M 508.5 383 L 505.5 387 L 508.5 383 Z " /><path fill="rgb(188,145,126)" stroke="rgb(188,145,126)" stroke-width="1" opacity="0.5647058823529412" d="M 12.5 389 L 16 390.5 L 14.5 391 L 12.5 389 Z " /><path fill="rgb(188,145,126)" stroke="rgb(188,145,126)" stroke-width="1" opacity="0.5647058823529412" d="M 17.5 391 L 28 395.5 L 26.5 396 L 17.5 392 L 17.5 391 Z " /><path fill="rgb(188,145,126)" stroke="rgb(188,145,126)" stroke-width="1" opacity="0.5647058823529412" d="M 491.5 392 L 493 392.5 L 489.5 394 L 489.5 393 L 491.5 392 Z " /><path fill="rgb(188,145,126)" stroke="rgb(188,145,126)" stroke-width="1" opacity="0.5647058823529412" d="M 29.5 396 L 33 397.5 L 31.5 398 L 29.5 396 Z " /><path fill="rgb(188,145,126)" stroke="rgb(188,145,126)" stroke-width="1" opacity="0.5647058823529412" d="M 479.5 397 L 481 397.5 L 477.5 399 L 477.5 398 L 479.5 397 Z " /><path fill="rgb(188,145,126)" stroke="rgb(188,145,126)" stroke-width="1" opacity="0.5647058823529412" d="M 34.5 398 L 40 400.5 L 38.5 401 L 34.5 399 L 34.5 398 Z " /><path fill="rgb(188,145,126)" stroke="rgb(188,145,126)" stroke-width="1" opacity="0.5647058823529412" d="M 474.5 399 L 476 399.5 L 472.5 401 L 472.5 400 L 474.5 399 Z " /><path fill="rgb(188,145,126)" stroke="rgb(188,145,126)" stroke-width="1" opacity="0.5647058823529412" d="M 41.5 401 L 45 402.5 L 43.5 403 L 41.5 401 Z " /><path fill="rgb(188,145,126)" stroke="rgb(188,145,126)" stroke-width="1" opacity="0.5647058823529412" d="M 46.5 403 L 57 407.5 L 55.5 408 L 46.5 404 L 46.5 403 Z " /><path fill="rgb(188,145,126)" stroke="rgb(188,145,126)" stroke-width="1" opacity="0.5647058823529412" d="M 462.5 404 L 464 404.5 L 460.5 406 L 460.5 405 L 462.5 404 Z " /><path fill="rgb(188,145,126)" stroke="rgb(188,145,126)" stroke-width="1" opacity="0.5647058823529412" d="M 58.5 408 L 62 409.5 L 60.5 410 L 58.5 408 Z " /><path fill="rgb(188,145,126)" stroke="rgb(188,145,126)" stroke-width="1" opacity="0.5647058823529412" d="M 450.5 409 L 452 409.5 L 448.5 411 L 448.5 410 L 450.5 409 Z " /><path fill="rgb(188,145,126)" stroke="rgb(188,145,126)" stroke-width="1" opacity="0.5647058823529412" d="M 63.5 410 L 69 412.5 L 67.5 413 L 63.5 411 L 63.5 410 Z " /><path fill="rgb(188,145,126)" stroke="rgb(188,145,126)" stroke-width="1" opacity="0.5647058823529412" d="M 445.5 411 L 447 411.5 L 443.5 413 L 443.5 412 L 445.5 411 Z " /><path fill="rgb(188,145,126)" stroke="rgb(188,145,126)" stroke-width="1" opacity="0.5647058823529412" d="M 70.5 413 L 74 414.5 L 72.5 415 L 70.5 413 Z " /><path fill="rgb(188,145,126)" stroke="rgb(188,145,126)" stroke-width="1" opacity="0.5647058823529412" d="M 75.5 415 L 86 419.5 L 84.5 420 L 75.5 416 L 75.5 415 Z " /><path fill="rgb(188,145,126)" stroke="rgb(188,145,126)" stroke-width="1" opacity="0.5647058823529412" d="M 433.5 416 L 435 416.5 L 431.5 418 L 431.5 417 L 433.5 416 Z " /><path fill="rgb(188,145,126)" stroke="rgb(188,145,126)" stroke-width="1" opacity="0.5647058823529412" d="M 87.5 420 L 91 421.5 L 89.5 422 L 87.5 420 Z " /><path fill="rgb(188,145,126)" stroke="rgb(188,145,126)" stroke-width="1" opacity="0.5647058823529412" d="M 92.5 422 L 98 424.5 L 96.5 425 L 92.5 423 L 92.5 422 Z " /><path fill="rgb(188,145,126)" stroke="rgb(188,145,126)" stroke-width="1" opacity="0.5647058823529412" d="M 416.5 423 L 418 423.5 L 414.5 425 L 414.5 424 L 416.5 423 Z " /><path fill="rgb(188,145,126)" stroke="rgb(188,145,126)" stroke-width="1" opacity="0.5647058823529412" d="M 99.5 425 L 103 426.5 L 101.5 427 L 99.5 425 Z " /><path fill="rgb(188,145,126)" stroke="rgb(188,145,126)" stroke-width="1" opacity="0.5647058823529412" d="M 104.5 427 L 115 431.5 L 113.5 432 L 104.5 428 L 104.5 427 Z " /><path fill="rgb(188,145,126)" stroke="rgb(188,145,126)" stroke-width="1" opacity="0.5647058823529412" d="M 404.5 428 L 406 428.5 L 402.5 430 L 402.5 429 L 404.5 428 Z " /><path fill="rgb(188,145,126)" stroke="rgb(188,145,126)" stroke-width="1" opacity="0.5647058823529412" d="M 116.5 432 L 120 433.5 L 118.5 434 L 116.5 432 Z " /><path fill="rgb(188,145,126)" stroke="rgb(188,145,126)" stroke-width="1" opacity="0.5647058823529412" d="M 121.5 434 L 127 436.5 L 125.5 437 L 121.5 435 L 121.5 434 Z " /><path fill="rgb(188,145,126)" stroke="rgb(188,145,126)" stroke-width="1" opacity="0.5647058823529412" d="M 387.5 435 L 389 435.5 L 385.5 437 L 385.5 436 L 387.5 435 Z " /><path fill="rgb(188,145,126)" stroke="rgb(188,145,126)" stroke-width="1" opacity="0.5647058823529412" d="M 128.5 437 L 132 438.5 L 130.5 439 L 128.5 437 Z " /><path fill="rgb(188,145,126)" stroke="rgb(188,145,126)" stroke-width="1" opacity="0.5647058823529412" d="M 133.5 439 L 144 443.5 L 142.5 444 L 133.5 440 L 133.5 439 Z " /><path fill="rgb(188,145,126)" stroke="rgb(188,145,126)" stroke-width="1" opacity="0.5647058823529412" d="M 375.5 440 L 377 440.5 L 373.5 442 L 373.5 441 L 375.5 440 Z " /><path fill="rgb(188,145,126)" stroke="rgb(188,145,126)" stroke-width="1" opacity="0.5647058823529412" d="M 145.5 444 L 149 445.5 L 147.5 446 L 145.5 444 Z " /><path fill="rgb(188,145,126)" stroke="rgb(188,145,126)" stroke-width="1" opacity="0.5647058823529412" d="M 150.5 446 L 156 448.5 L 154.5 449 L 150.5 447 L 150.5 446 Z " /><path fill="rgb(188,145,126)" stroke="rgb(188,145,126)" stroke-width="1" opacity="0.5647058823529412" d="M 358.5 447 L 360 447.5 L 356.5 449 L 356.5 448 L 358.5 447 Z " /><path fill="rgb(188,145,126)" stroke="rgb(188,145,126)" stroke-width="1" opacity="0.5647058823529412" d="M 157.5 449 L 161 450.5 L 159.5 451 L 157.5 449 Z " /><path fill="rgb(188,145,126)" stroke="rgb(188,145,126)" stroke-width="1" opacity="0.5647058823529412" d="M 162.5 451 L 173 455.5 L 171.5 456 L 162.5 452 L 162.5 451 Z " /><path fill="rgb(188,145,126)" stroke="rgb(188,145,126)" stroke-width="1" opacity="0.5647058823529412" d="M 346.5 452 L 348 452.5 L 344.5 454 L 344.5 453 L 346.5 452 Z " /><path fill="rgb(188,145,126)" stroke="rgb(188,145,126)" stroke-width="1" opacity="0.5647058823529412" d="M 174.5 456 L 178 457.5 L 176.5 458 L 174.5 456 Z " /><path fill="rgb(188,145,126)" stroke="rgb(188,145,126)" stroke-width="1" opacity="0.5647058823529412" d="M 179.5 458 L 185 460.5 L 183.5 461 L 179.5 459 L 179.5 458 Z " /><path fill="rgb(188,145,126)" stroke="rgb(188,145,126)" stroke-width="1" opacity="0.5647058823529412" d="M 329.5 459 L 331 459.5 L 327.5 461 L 327.5 460 L 329.5 459 Z " /><path fill="rgb(188,145,126)" stroke="rgb(188,145,126)" stroke-width="1" opacity="0.5647058823529412" d="M 186.5 461 L 190 462.5 L 188.5 463 L 186.5 461 Z " /><path fill="rgb(188,145,126)" stroke="rgb(188,145,126)" stroke-width="1" opacity="0.5647058823529412" d="M 191.5 463 L 202 467.5 L 200.5 468 L 191.5 464 L 191.5 463 Z " /><path fill="rgb(188,145,126)" stroke="rgb(188,145,126)" stroke-width="1" opacity="0.5647058823529412" d="M 317.5 464 L 319 464.5 L 315.5 466 L 315.5 465 L 317.5 464 Z " /><path fill="rgb(188,145,126)" stroke="rgb(188,145,126)" stroke-width="1" opacity="0.5647058823529412" d="M 203.5 468 L 207 469.5 L 205.5 470 L 203.5 468 Z " /><path fill="rgb(188,145,126)" stroke="rgb(188,145,126)" stroke-width="1" opacity="0.5647058823529412" d="M 208.5 470 L 214 472.5 L 212.5 473 L 208.5 471 L 208.5 470 Z " /><path fill="rgb(188,145,126)" stroke="rgb(188,145,126)" stroke-width="1" opacity="0.5647058823529412" d="M 300.5 471 L 302 471.5 L 298.5 473 L 298.5 472 L 300.5 471 Z " /><path fill="rgb(188,145,126)" stroke="rgb(188,145,126)" stroke-width="1" opacity="0.5647058823529412" d="M 215.5 473 L 219 474.5 L 217.5 475 L 215.5 473 Z " /><path fill="rgb(188,145,126)" stroke="rgb(188,145,126)" stroke-width="1" opacity="0.5647058823529412" d="M 220.5 475 L 231 479.5 L 229.5 480 L 220.5 476 L 220.5 475 Z " /><path fill="rgb(188,145,126)" stroke="rgb(188,145,126)" stroke-width="1" opacity="0.5647058823529412" d="M 288.5 476 L 290 476.5 L 286.5 478 L 286.5 477 L 288.5 476 Z " /><path fill="rgb(188,145,126)" stroke="rgb(188,145,126)" stroke-width="1" opacity="0.5647058823529412" d="M 232.5 480 L 236 481.5 L 234.5 482 L 232.5 480 Z " /><path fill="rgb(188,145,126)" stroke="rgb(188,145,126)" stroke-width="1" opacity="0.5647058823529412" d="M 237.5 482 L 243 484.5 L 241.5 485 L 237.5 483 L 237.5 482 Z " /><path fill="rgb(188,145,126)" stroke="rgb(188,145,126)" stroke-width="1" opacity="0.5647058823529412" d="M 252.5 488 L 256 488.5 L 252.5 489 L 252.5 488 Z " /><path fill="rgb(188,145,126)" stroke="rgb(188,145,126)" stroke-width="1" opacity="0.5647058823529412" d="M 257.5 488 L 260 488.5 L 257.5 489 L 257.5 488 Z " /><path fill="rgb(190,146,124)" stroke="rgb(190,146,124)" stroke-width="1" opacity="1" d="M 20.5 119 L 106.5 161 L 190.5 197 L 239.5 213 L 250.5 215 L 262.5 215 L 292.5 206 L 330.5 192 L 341.5 198 L 344 198 L 344 302.5 L 348.5 308 L 355.5 309 L 398.5 291 L 405 286.5 L 406 284.5 L 406 171 L 395 166.5 L 495.5 124 L 500.5 123 L 509 129.5 L 512 136.5 L 512 375.5 Q 510.2 383.2 504.5 387 L 264.5 487 L 256.5 489 L 256 233 L 4 130 L 7.5 125 L 20.5 119 Z M 352 357 L 302 377 L 300 381 L 301 390 L 306 393 L 315 392 L 359 374 L 362 370 L 361 362 Q 359 356 352 357 Z M 394 384 L 309 418 L 300 425 L 301 434 L 306 437 L 313 437 L 398 403 L 406 397 L 405 388 Q 403 382 394 384 Z " /><path fill="rgb(168,126,107)" stroke="rgb(168,126,107)" stroke-width="1" opacity="1" d="M 0 141 L 11.5 144 L 56.5 161 L 148.5 200 Q 178.9 214.1 206.5 231 Q 222.3 240.2 234 253.5 L 240 265.5 L 244 288.5 L 245 323.5 L 246 324.5 L 246 361.5 L 245 362.5 L 245 394.5 L 244 395.5 L 243 434.5 L 242 435.5 L 240 479.5 L 239 482 L 16.5 391 L 4 383.5 L 0 374.5 L 0 141 Z " /><path fill="rgb(168,126,107)" stroke="rgb(168,126,107)" stroke-width="1" opacity="1" d="M 404.5 286 L 402.5 289 L 404.5 286 Z " /><path fill="rgb(168,126,107)" stroke="rgb(168,126,107)" stroke-width="1" opacity="1" d="M 301.5 389 L 302.5 391 L 301.5 389 Z " /><path fill="rgb(168,126,107)" stroke="rgb(168,126,107)" stroke-width="1" opacity="1" d="M 301.5 433 L 303.5 436 L 301.5 433 Z " /></svg>